<svg width="711" height="155" viewBox="0 0 711 155" fill="none" xmlns="http://www.w3.org/2000/svg">
<path d="M37.4743 8.46875L37.328 8.61503L8.45728 38.0093L8.311 38.1671C2.96721 43.705 -0.0131778 51.1043 9.20008e-05 58.8V95.5467C-0.0190804 103.243 2.95899 110.645 8.30332 116.184L8.44957 116.337L37.4589 145.882C40.1071 148.563 43.2611 150.692 46.7381 152.146C50.2151 153.6 53.946 154.349 57.7146 154.351H124.548V124.568H29.6792V29.6406H124.548V0H57.73C53.9616 0.00300432 50.2311 0.752995 46.7543 2.20661C43.2776 3.66022 40.1234 5.78862 37.4743 8.46875Z" fill="white"/>
<path d="M242.074 8.46875L242.22 8.61503L271.091 38.0093L271.234 38.1671C276.582 43.7024 279.564 51.103 279.548 58.8V95.5467C279.566 103.244 276.587 110.645 271.241 116.183L271.099 116.337L242.09 145.882C239.441 148.563 236.287 150.692 232.81 152.146C229.333 153.6 225.602 154.349 221.834 154.351H155V124.568H249.869V29.6406H155V0H221.818C225.587 0.0032165 229.317 0.753301 232.794 2.2069C236.271 3.6605 239.425 5.78879 242.074 8.46875Z" fill="white"/>
<path d="M698.079 81.6458H701.38C701.995 81.6367 702.606 81.7536 703.174 81.9892C703.709 82.2016 704.164 82.5756 704.476 83.0589C704.788 83.5422 704.941 84.1108 704.915 84.6856C704.938 85.3193 704.746 85.9421 704.371 86.4534C703.992 86.9345 703.476 87.2895 702.892 87.4714L705.011 91.2671H703.085L701.09 87.7051H699.852V91.2671H698.079V81.6458ZM701.311 86.2522C701.78 86.2718 702.242 86.1338 702.624 85.8601C702.795 85.7273 702.932 85.5546 703.022 85.357C703.112 85.1595 703.152 84.9429 703.14 84.7262C703.154 84.5081 703.115 84.2898 703.025 84.0906C702.935 83.8914 702.797 83.7175 702.624 83.5843C702.241 83.3143 701.779 83.1785 701.311 83.1982H699.852V86.2522H701.311Z" fill="white"/>
<path fill-rule="evenodd" clip-rule="evenodd" d="M701.277 94.1781C705.485 94.1781 708.897 90.766 708.897 86.5568C708.897 82.3477 705.485 78.9355 701.277 78.9355C697.069 78.9355 693.657 82.3477 693.657 86.5568C693.657 90.766 697.069 94.1781 701.277 94.1781ZM701.277 95.6671C706.307 95.6671 710.386 91.5883 710.386 86.5568C710.386 81.5254 706.307 77.4466 701.277 77.4466C696.246 77.4466 692.168 81.5254 692.168 86.5568C692.168 91.5883 696.246 95.6671 701.277 95.6671Z" fill="white"/>
<path d="M331.226 72.2759C324.146 72.2759 317.934 70.6395 312.591 67.3666C307.314 64.0937 303.273 59.7187 300.468 54.2417C297.662 48.6978 296.26 42.6864 296.26 36.2075C296.26 29.7285 297.662 23.7505 300.468 18.2734C303.273 12.7296 307.314 8.32123 312.591 5.04836C317.934 1.77548 324.146 0.139046 331.226 0.139046C339.442 0.139046 346.422 2.30983 352.166 6.6514C357.91 10.993 361.884 16.6704 364.088 23.6837L351.665 26.7896C350.195 22.2477 347.691 18.6074 344.151 15.8689C340.677 13.1304 336.369 11.7611 331.226 11.7611C326.617 11.7611 322.643 12.8632 319.304 15.0674C315.964 17.2715 313.426 20.2439 311.689 23.9843C310.019 27.7247 309.184 31.7991 309.184 36.2075C309.184 40.6158 310.019 44.6902 311.689 48.4307C313.426 52.1711 315.964 55.1434 319.304 57.3476C322.643 59.5518 326.617 60.6538 331.226 60.6538C336.369 60.6538 340.677 59.2846 344.151 56.5461C347.691 53.8075 350.195 50.1673 351.665 45.6253L364.088 48.7312C361.884 55.7445 357.91 61.422 352.166 65.7635C346.422 70.1051 339.442 72.2759 331.226 72.2759Z" fill="white"/>
<path d="M368.506 25.2868C368.239 20.2105 369.241 15.7687 371.512 11.9615C373.783 8.08746 376.889 5.14855 380.83 3.14475C384.837 1.14095 389.179 0.139046 393.854 0.139046C398.463 0.139046 402.604 1.07415 406.278 2.94437C410.018 4.81458 412.957 7.45292 415.095 10.8594C417.232 14.1991 418.301 18.0063 418.301 22.2811C418.301 27.3573 416.831 31.5653 413.892 34.905C411.02 38.2447 406.846 41.6177 401.369 45.0242L392.852 50.3343C388.244 53.2064 384.971 56.3123 383.034 59.6519H418.601V71.274H367.504C367.237 64.8618 368.439 59.4182 371.111 54.943C373.85 50.4011 378.425 46.0929 384.837 42.0185L395.958 34.905C399.031 32.8344 401.369 30.8974 402.972 29.094C404.575 27.2238 405.376 25.0196 405.376 22.4814C405.376 19.2753 404.307 16.7038 402.17 14.7668C400.1 12.763 397.328 11.7611 393.854 11.7611C389.98 11.7611 386.808 13.0636 384.336 15.6685C381.932 18.2067 380.763 21.7467 380.83 26.2887L368.506 25.2868Z" fill="white"/>
<path d="M347.261 83.0608V94.6829H314.9V115.422H344.255V126.443H314.9V153.194H301.975V83.0608H347.261Z" fill="white"/>
<path d="M366.957 103.099V153.194H354.033V103.099H366.957ZM352.63 86.0666C352.63 83.9292 353.398 82.0924 354.935 80.5561C356.471 79.0199 358.341 78.2517 360.545 78.2517C362.683 78.2517 364.52 79.0199 366.056 80.5561C367.592 82.0924 368.36 83.9292 368.36 86.0666C368.36 88.2707 367.592 90.1409 366.056 91.6772C364.52 93.2134 362.683 93.9815 360.545 93.9815C358.341 93.9815 356.471 93.2134 354.935 91.6772C353.398 90.1409 352.63 88.2707 352.63 86.0666Z" fill="white"/>
<path d="M390.651 111.615C392.187 108.609 394.258 106.272 396.863 104.602C399.534 102.932 402.674 102.097 406.281 102.097C411.357 102.097 415.465 103.867 418.604 107.407C421.81 110.88 423.413 115.723 423.413 121.935V153.194H410.489V125.141C410.489 121.467 409.687 118.662 408.084 116.725C406.548 114.721 404.243 113.719 401.171 113.719C397.965 113.719 395.393 114.855 393.456 117.125C391.586 119.396 390.651 122.369 390.651 126.042V153.194H377.726V103.099H390.651V111.615Z" fill="white"/>
<path d="M447.462 154.196C442.386 154.196 438.211 152.86 434.938 150.188C431.732 147.45 430.129 143.843 430.129 139.368C430.129 134.959 431.832 131.486 435.239 128.948C438.645 126.41 443.22 124.707 448.965 123.838L455.577 122.836C457.648 122.502 459.117 122.102 459.986 121.634C460.854 121.166 461.288 120.298 461.288 119.029C461.288 117.092 460.487 115.556 458.884 114.42C457.347 113.218 455.377 112.617 452.972 112.617C450.301 112.617 448.096 113.285 446.36 114.621C444.623 115.957 443.655 117.894 443.454 120.432L431.131 119.43C431.598 114.22 433.803 110.045 437.743 106.906C441.751 103.7 446.76 102.097 452.772 102.097C456.779 102.097 460.386 102.832 463.592 104.301C466.865 105.771 469.437 107.975 471.307 110.914C473.244 113.853 474.213 117.393 474.213 121.534V147.082C474.213 149.353 474.346 151.39 474.613 153.194H463.492C463.292 151.925 463.192 150.021 463.192 147.483V147.283C459.986 151.891 454.742 154.196 447.462 154.196ZM443.053 138.566C443.053 140.436 443.788 141.939 445.258 143.075C446.794 144.143 448.764 144.678 451.169 144.678C454.175 144.678 456.613 143.809 458.483 142.073C460.353 140.336 461.288 137.898 461.288 134.759V130.952L459.084 131.352L451.67 132.555C448.864 133.022 446.727 133.69 445.258 134.559C443.788 135.36 443.053 136.696 443.053 138.566Z" fill="white"/>
<path d="M497.06 111.615C498.596 108.609 500.667 106.272 503.272 104.602C505.944 102.932 509.083 102.097 512.69 102.097C517.766 102.097 521.874 103.867 525.013 107.407C528.219 110.88 529.822 115.723 529.822 121.935V153.194H516.898V125.141C516.898 121.467 516.096 118.662 514.493 116.725C512.957 114.721 510.653 113.719 507.58 113.719C504.374 113.719 501.802 114.855 499.865 117.125C497.995 119.396 497.06 122.369 497.06 126.042V153.194H484.136V103.099H497.06V111.615Z" fill="white"/>
<path d="M536.338 128.146C536.338 123.404 537.373 119.062 539.444 115.122C541.581 111.114 544.553 107.941 548.361 105.604C552.235 103.266 556.676 102.097 561.686 102.097C568.098 102.097 573.475 103.934 577.816 107.607C582.225 111.281 584.997 115.99 586.132 121.734L573.308 122.937C572.506 120.131 571.104 117.894 569.1 116.224C567.163 114.554 564.692 113.719 561.686 113.719C557.812 113.719 554.773 115.122 552.569 117.927C550.364 120.666 549.262 124.072 549.262 128.146C549.262 132.221 550.364 135.661 552.569 138.466C554.773 141.204 557.812 142.574 561.686 142.574C564.692 142.574 567.163 141.739 569.1 140.069C571.104 138.399 572.506 136.162 573.308 133.356L586.132 134.559C584.997 140.303 582.225 145.012 577.816 148.685C573.475 152.359 568.098 154.196 561.686 154.196C556.676 154.196 552.235 153.027 548.361 150.689C544.553 148.351 541.581 145.212 539.444 141.271C537.373 137.264 536.338 132.889 536.338 128.146Z" fill="white"/>
<path d="M605.927 103.099V153.194H593.002V103.099H605.927ZM591.6 86.0666C591.6 83.9292 592.368 82.0924 593.904 80.5561C595.44 79.0199 597.311 78.2517 599.515 78.2517C601.652 78.2517 603.489 79.0199 605.025 80.5561C606.561 82.0924 607.329 83.9292 607.329 86.0666C607.329 88.2707 606.561 90.1409 605.025 91.6772C603.489 93.2134 601.652 93.9815 599.515 93.9815C597.311 93.9815 595.44 93.2134 593.904 91.6772C592.368 90.1409 591.6 88.2707 591.6 86.0666Z" fill="white"/>
<path d="M631.123 154.196C626.047 154.196 621.872 152.86 618.599 150.188C615.393 147.45 613.79 143.843 613.79 139.368C613.79 134.959 615.493 131.486 618.9 128.948C622.306 126.41 626.882 124.707 632.626 123.838L639.238 122.836C641.309 122.502 642.778 122.102 643.647 121.634C644.515 121.166 644.949 120.298 644.949 119.029C644.949 117.092 644.148 115.556 642.545 114.42C641.008 113.218 639.038 112.617 636.633 112.617C633.962 112.617 631.758 113.285 630.021 114.621C628.284 115.957 627.316 117.894 627.115 120.432L614.792 119.43C615.26 114.22 617.464 110.045 621.405 106.906C625.412 103.7 630.422 102.097 636.433 102.097C640.441 102.097 644.048 102.832 647.254 104.301C650.526 105.771 653.098 107.975 654.968 110.914C656.905 113.853 657.874 117.393 657.874 121.534V147.082C657.874 149.353 658.007 151.39 658.274 153.194H647.153C646.953 151.925 646.853 150.021 646.853 147.483V147.283C643.647 151.891 638.403 154.196 631.123 154.196ZM626.715 138.566C626.715 140.436 627.449 141.939 628.919 143.075C630.455 144.143 632.425 144.678 634.83 144.678C637.836 144.678 640.274 143.809 642.144 142.073C644.014 140.336 644.949 137.898 644.949 134.759V130.952L642.745 131.352L635.331 132.555C632.526 133.022 630.388 133.69 628.919 134.559C627.449 135.36 626.715 136.696 626.715 138.566Z" fill="white"/>
<path d="M680.721 83.0608V153.194H667.796V83.0608H680.721Z" fill="white"/>
</svg>
